<?xml version="1.0" encoding="UTF-8" standalone="no"?>
<!-- Generator: Adobe Illustrator 16.0.0, SVG Export Plug-In . SVG Version: 6.00 Build 0)  -->
<svg version="1.1" id="Layer_1" x="0px" y="0px" width="171.73309" height="238.5625" viewBox="-202.36 295.918 171.73309 238.56251" enable-background="new -202.36 295.918 1000 250.055" xml:space="preserve" sodipodi:docname="Fandom_2021.svg" inkscape:version="1.2.1 (9c6d41e410, 2022-07-14, custom)" xmlns:inkscape="http://www.inkscape.org/namespaces/inkscape" xmlns:sodipodi="http://sodipodi.sourceforge.net/DTD/sodipodi-0.dtd" xmlns="http://www.w3.org/2000/svg" xmlns:svg="http://www.w3.org/2000/svg"><defs id="defs246"/><sodipodi:namedview id="namedview244" pagecolor="#ffffff" bordercolor="#000000" borderopacity="0.25" inkscape:showpageshadow="2" inkscape:pageopacity="0.0" inkscape:pagecheckerboard="0" inkscape:deskcolor="#d1d1d1" showgrid="false" inkscape:zoom="1.358" inkscape:cx="-110.45655" inkscape:cy="125.18409" inkscape:window-width="1920" inkscape:window-height="1061" inkscape:window-x="0" inkscape:window-y="19" inkscape:window-maximized="1" inkscape:current-layer="g241"/>
<g id="g241" transform="translate(-610.41993,5.0011268e-4)">
	<g id="g237">
		<path fill="#fa005a" d="M 572.812,412.422 457.524,297.166 c -1.664,-1.664 -4.361,-1.665 -6.024,-10e-4 -0.796,0.795 -1.243,1.873 -1.248,2.997 v 96.921 l -34.92,-34.888 c -1.664,-1.663 -4.36,-1.664 -6.024,0 -0.799,0.799 -1.248,1.883 -1.248,3.014 v 100.079 c -0.015,6.33 2.498,12.405 6.98,16.877 l 45.432,45.351 c 4.476,4.454 10.53,6.957 16.845,6.964 h 33.252 c 6.31,-0.004 12.361,-2.507 16.828,-6.964 l 45.432,-45.351 c 4.466,-4.46 6.973,-10.517 6.964,-16.828 v -36.069 c 0.005,-6.323 -2.508,-12.384 -6.981,-16.846 z" id="path233"/>
		<path fill="#ffc500" d="m 537.649,454.63 c -0.005,1.889 -0.756,3.699 -2.09,5.036 L 498.954,496.4 c -2.771,2.796 -7.282,2.815 -10.078,0.045 -0.015,-0.016 -0.029,-0.03 -0.046,-0.045 l -36.522,-36.781 c -1.327,-1.324 -2.083,-3.115 -2.106,-4.989 v -14.026 c 0.004,-1.897 0.762,-3.716 2.106,-5.054 l 13.152,-13.152 c 2.794,-2.784 7.313,-2.784 10.105,0 l 18.384,18.399 18.351,-18.399 c 2.794,-2.784 7.313,-2.784 10.106,0 l 13.136,13.152 c 1.346,1.338 2.104,3.156 2.106,5.054 v 14.026 z" id="path235"/>
	</g>
	
</g>
</svg>