<?xml version="1.0" encoding="UTF-8" standalone="no"?>
<!-- Created with Inkscape (http://www.inkscape.org/) -->

<svg
   version="1.1"
   id="svg1358"
   width="300.75189"
   height="300.27069"
   viewBox="0 0 300.75189 300.27069"
   sodipodi:docname="favicon.svg"
   inkscape:version="1.2.2 (b0a8486541, 2022-12-01)"
   xmlns:inkscape="http://www.inkscape.org/namespaces/inkscape"
   xmlns:sodipodi="http://sodipodi.sourceforge.net/DTD/sodipodi-0.dtd"
   xmlns:xlink="http://www.w3.org/1999/xlink"
   xmlns="http://www.w3.org/2000/svg"
   xmlns:svg="http://www.w3.org/2000/svg">
  <defs
     id="defs1362">
    <linearGradient
       inkscape:collect="always"
       id="linearGradient3218">
      <stop
         style="stop-color:#ff7223;stop-opacity:1;"
         offset="0"
         id="stop3214" />
      <stop
         style="stop-color:#fffa80;stop-opacity:1;"
         offset="1"
         id="stop3216" />
    </linearGradient>
    <linearGradient
       inkscape:collect="always"
       xlink:href="#linearGradient3218"
       id="linearGradient3220"
       x1="-6.169671e-09"
       y1="150.13574"
       x2="256.70703"
       y2="150.13574"
       gradientUnits="userSpaceOnUse" />
  </defs>
  <sodipodi:namedview
     id="namedview1360"
     pagecolor="#ffffff"
     bordercolor="#000000"
     borderopacity="0.25"
     inkscape:showpageshadow="2"
     inkscape:pageopacity="0.0"
     inkscape:pagecheckerboard="0"
     inkscape:deskcolor="#d1d1d1"
     showgrid="false"
     inkscape:zoom="0.91605523"
     inkscape:cx="68.773146"
     inkscape:cy="148.46266"
     inkscape:window-width="1056"
     inkscape:window-height="1061"
     inkscape:window-x="0"
     inkscape:window-y="19"
     inkscape:window-maximized="1"
     inkscape:current-layer="g3049" />
  <g
     inkscape:groupmode="layer"
     inkscape:label="Image"
     id="g1364">
    <path
       id="path2264"
       style="fill:url(#linearGradient3220);stroke-width:3;stroke-linecap:round;stroke-linejoin:round;fill-opacity:1"
       d="M 150.375 0 A 150.37595 150.13535 0 0 0 0 150.13477 A 150.37595 150.13535 0 0 0 150.375 300.27148 A 150.37595 150.13535 0 0 0 256.70703 256.29688 L 221.31055 220.95703 A 100.31532 100.15481 0 0 1 150.375 250.29102 A 100.31532 100.15481 0 0 1 50.060547 150.13477 A 100.31532 100.15481 0 0 1 150.375 49.980469 A 100.31532 100.15481 0 0 1 221.03906 79.583984 L 256.4375 44.244141 A 150.37595 150.13535 0 0 0 150.375 0 z " />
    <g
       id="g3049"
       transform="matrix(1.9715307,0,0,1.9715307,-146.09485,-145.8611)">
      <circle
         style="fill:#ffea75;fill-opacity:1;stroke-width:3;stroke-linecap:round;stroke-linejoin:round"
         id="path2692"
         cx="150.37595"
         cy="150.13535"
         r="30.560379" />
      <path
         id="circle2832"
         style="fill:#ff8530;stroke-width:3;stroke-linecap:round;stroke-linejoin:round;fill-opacity:1"
         d="m 119.81641,150.13477 a 30.560379,30.560379 0 0 0 30.55859,30.56054 30.560379,30.560379 0 0 0 30.56055,-30.56054 z" />
      <ellipse
         style="fill:#ff8530;fill-opacity:1;stroke-width:3;stroke-linecap:round;stroke-linejoin:round"
         id="path3041"
         cx="135.09578"
         cy="150.13477"
         rx="15.280207"
         ry="15.279902" />
      <ellipse
         style="fill:#ffea75;fill-opacity:1;stroke-width:3;stroke-linecap:round;stroke-linejoin:round"
         id="ellipse3043"
         cx="165.65611"
         cy="150.13535"
         rx="15.280207"
         ry="15.279902" />
    </g>
  </g>
</svg>
