<?xml version="1.0" encoding="UTF-8" standalone="no"?>
<svg version="1.1" width="300.63122" height="300.19998" viewBox="0,0,300.63122,300.19998" id="svg198" sodipodi:docname="dev2.svg" inkscape:export-filename="../Pictures/dev2.png" inkscape:export-xdpi="798.32001" inkscape:export-ydpi="798.32001" inkscape:version="1.2.1 (9c6d41e410, 2022-07-14, custom)" xmlns:inkscape="http://www.inkscape.org/namespaces/inkscape" xmlns:sodipodi="http://sodipodi.sourceforge.net/DTD/sodipodi-0.dtd" xmlns="http://www.w3.org/2000/svg" xmlns:svg="http://www.w3.org/2000/svg">
  <defs id="defs202"/>
  <sodipodi:namedview id="namedview200" pagecolor="#ffffff" bordercolor="#000000" borderopacity="0.25" inkscape:showpageshadow="2" inkscape:pageopacity="0.0" inkscape:pagecheckerboard="0" inkscape:deskcolor="#d1d1d1" showgrid="false" inkscape:zoom="2.924717" inkscape:cx="164.97322" inkscape:cy="154.88678" inkscape:window-width="1920" inkscape:window-height="1061" inkscape:window-x="0" inkscape:window-y="19" inkscape:window-maximized="1" inkscape:current-layer="svg198"/>
  <g transform="translate(-89.68439,-29.90001)" id="g196">
    <g data-paper-data="{&quot;isPaintingLayer&quot;:true}" fill-rule="nonzero" stroke="none" stroke-linecap="square" stroke-miterlimit="10" stroke-dasharray="" stroke-dashoffset="0" style="mix-blend-mode: normal" id="g194">
      <path d="M89.68439,29.90001h300v300.19998h-300z" fill="#2a3140" stroke-width="0.26458" stroke-linejoin="miter" id="path166"/>
      <path d="M215.0378,84.54587l-17.67689,17.6769c-4.68813,-4.68843 -11.04666,-7.32256 -17.67689,-7.32294c-13.80695,0.00018 -24.99965,11.19288 -24.99983,24.99982c-0.0001,6.63046 2.63375,12.98939 7.32213,17.6779c4.68838,4.68851 11.04724,7.32254 17.6777,7.32262c6.62879,-0.00459 12.9844,-2.64161 17.66931,-7.33122l17.66931,17.66932c-9.36995,9.37895 -22.08115,14.65273 -35.33862,14.66173c-27.61418,-0.00035 -49.99969,-22.38618 -49.99966,-50.00035c0.00035,-27.6139 22.38576,-49.9993 49.99966,-49.99965c13.26045,0.00077 25.97752,5.26901 35.35378,14.64586z" fill="#ffffff" stroke-width="0.5" stroke-linejoin="miter" id="path168"/>
      <path d="M390.31561,29.90001v300h-300.00003z" fill="#ffda49" stroke-width="0.26458" stroke-linejoin="miter" id="path170"/>
      <g fill="#2a3140" stroke-width="10.1453" stroke-linejoin="round" id="g192">
        <g id="g174">
          <path d="M313.05,189.9463l0.09387,48.40734l-12.82093,-0.02314l-12.82092,-0.02315l-0.09387,-48.40734z" id="path172"/>
        </g>
        <g id="g178">
          <path d="M341.80461,209.95624l3.93987,12.20058l3.93987,12.20058l-46.00911,15.04797l-7.87974,-24.40116z" id="path176"/>
        </g>
        <g id="g182">
          <path d="M338.65039,268.79475l-10.38595,7.51723l-10.38595,7.51723l-28.52906,-39.10718l20.77191,-15.03445z" id="path180"/>
        </g>
        <g id="g186">
          <path d="M281.71694,283.97701l-10.35874,-7.55468l-10.35874,-7.55468l28.37718,-39.21753l20.71749,15.10936z" id="path184"/>
        </g>
        <g id="g190">
          <path d="M249.68436,234.52165l3.9839,-12.18627l3.9839,-12.18627l46.06712,14.86941l-7.96779,24.37255z" id="path188"/>
        </g>
      </g>
    </g>
  </g>
</svg>